<?xml version="1.0" encoding="UTF-8" standalone="no"?>
<!-- Created with Inkscape (http://www.inkscape.org/) -->

<svg
   width="1920"
   height="1080"
   viewBox="0 0 1920 1080"
   version="1.1"
   id="svg1"
   inkscape:version="1.3.2 (091e20ef0f, 2023-11-25)"
   sodipodi:docname="splash.svg"
   inkscape:export-filename="splash.png"
   inkscape:export-xdpi="96"
   inkscape:export-ydpi="96"
   xmlns:inkscape="http://www.inkscape.org/namespaces/inkscape"
   xmlns:sodipodi="http://sodipodi.sourceforge.net/DTD/sodipodi-0.dtd"
   xmlns="http://www.w3.org/2000/svg"
   xmlns:svg="http://www.w3.org/2000/svg">
  <sodipodi:namedview
     id="namedview1"
     pagecolor="#505050"
     bordercolor="#eeeeee"
     borderopacity="1"
     inkscape:showpageshadow="0"
     inkscape:pageopacity="0"
     inkscape:pagecheckerboard="0"
     inkscape:deskcolor="#505050"
     inkscape:document-units="px"
     inkscape:zoom="0.74135727"
     inkscape:cx="843.04832"
     inkscape:cy="348.01035"
     inkscape:window-width="2560"
     inkscape:window-height="1368"
     inkscape:window-x="0"
     inkscape:window-y="0"
     inkscape:window-maximized="1"
     inkscape:current-layer="layer1" />
  <defs
     id="defs1">
    <rect
       x="16.186528"
       y="18.884282"
       width="589.45939"
       height="384.43004"
       id="rect33" />
    <rect
       x="31.024178"
       y="20.23316"
       width="509.87563"
       height="326.42831"
       id="rect32" />
  </defs>
  <g
     inkscape:label="Layer 1"
     inkscape:groupmode="layer"
     id="layer1">
    <ellipse
       style="fill:#bfbfbf;fill-opacity:1"
       id="path1"
       cx="1080.4507"
       cy="335.87045"
       rx="113.30569"
       ry="116.00345" />
    <rect
       style="fill:#bfbfbf;fill-opacity:1"
       id="rect2"
       width="455.92053"
       height="31.024178"
       x="423.54749"
       y="598.90155" />
    <rect
       style="fill:#bfbfbf;fill-opacity:1;stroke-width:1.17615"
       id="rect3"
       width="29.675301"
       height="223.91364"
       x="566.5285"
       y="327.77716" />
    <rect
       style="fill:#bfbfbf;fill-opacity:1"
       id="rect4"
       width="5.3955092"
       height="49.908463"
       x="578.6684"
       y="550.34192" />
    <rect
       style="fill:#bfbfbf;fill-opacity:1"
       id="rect5"
       width="167.26079"
       height="25.62867"
       x="650.15887"
       y="574.62177" />
    <rect
       style="fill:#bfbfbf;fill-opacity:1"
       id="rect6"
       width="21.582037"
       height="426.24524"
       x="1231.525"
       y="388.47665" />
    <rect
       style="fill:#bfbfbf;fill-opacity:1"
       id="rect7"
       width="264.37994"
       height="31.024178"
       x="976.58716"
       y="783.69769" />
    <rect
       style="fill:#bfbfbf;fill-opacity:1"
       id="rect8"
       width="33.721931"
       height="312.93954"
       x="1062.9153"
       y="445.12952" />
    <ellipse
       style="fill:#bfbfbf;fill-opacity:1"
       id="path9"
       cx="1078.4275"
       cy="596.2038"
       rx="70.816063"
       ry="124.09671" />
    <ellipse
       style="fill:#bfbfbf;fill-opacity:1"
       id="path10"
       cx="1056.8453"
       cy="747.95245"
       rx="64.071671"
       ry="34.39637" />
    <rect
       style="fill:#bfbfbf;fill-opacity:1"
       id="rect10"
       width="153.77202"
       height="41.815197"
       x="857.88599"
       y="732.44037" />
    <rect
       style="fill:#bfbfbf;fill-opacity:1"
       id="rect11"
       width="36.419689"
       height="214.4715"
       x="830.90845"
       y="743.23138" />
    <ellipse
       style="fill:#bfbfbf;fill-opacity:1"
       id="path11"
       cx="854.51379"
       cy="759.41791"
       rx="29.000862"
       ry="24.279791" />
    <rect
       style="fill:#bfbfbf;fill-opacity:1;stroke-width:0.972305"
       id="rect12"
       width="303.49741"
       height="43.164074"
       x="610.48303"
       y="723.76636"
       transform="rotate(-13.363533)" />
    <rect
       style="fill:#bfbfbf;fill-opacity:1"
       id="rect13"
       width="41.815197"
       height="329.12607"
       x="522.0155"
       y="625.87909" />
    <rect
       style="fill:#bfbfbf;fill-opacity:1"
       id="rect14"
       width="80.93264"
       height="21.582037"
       x="500.43347"
       y="934.77197" />
    <rect
       style="fill:#bfbfbf;fill-opacity:1"
       id="rect15"
       width="26.977547"
       height="132.18997"
       x="1097.9861"
       y="810.67529" />
    <rect
       style="fill:#bfbfbf;fill-opacity:1"
       id="rect16"
       width="120.05008"
       height="25.62867"
       x="1049.4265"
       y="930.72534" />
    <ellipse
       style="fill:#bfbfbf;fill-opacity:1"
       id="path16"
       cx="488.96802"
       cy="576.64508"
       rx="23.605352"
       ry="22.256475" />
    <path
       style="fill:#bfbfbf;fill-opacity:1"
       id="path20"
       d="m 495.70215,562.23504 c -0.17967,-10.10419 1.61303,-20.24395 4.51312,-29.90611 1.12668,-3.7537 2.52348,-7.42097 3.78522,-11.13145 11.14379,-28.67278 27.20523,-55.2613 44.90559,-80.33567 5.01278,-7.10112 10.31851,-13.99084 15.47777,-20.98626 24.58689,-31.57536 51.64492,-61.47786 82.12855,-87.50163 22.47798,-19.18937 31.8546,-25.04954 55.89669,-42.133 36.83626,-24.94298 76.68534,-45.34062 119.01279,-59.18153 26.00009,-8.50192 34.00824,-9.55247 60.30665,-15.2498 9.99646,-1.24956 19.94253,-3.00626 29.9894,-3.74868 38.34393,-2.83342 79.83658,1.01062 117.43497,8.9585 9.0276,1.90834 17.9262,4.38279 26.8893,6.57419 28.7943,7.85053 57.0528,17.46839 85.7476,25.65873 9.6924,2.76652 19.3666,5.62726 29.1748,7.95046 27.3768,6.48457 34.3895,6.7709 62.1704,10.58794 11.1971,0.37754 22.3882,1.2143 33.5913,1.13262 22.4831,-0.16392 45.2895,-2.21879 67.4904,-5.72294 10.8475,-1.71213 21.67,-3.68781 32.34,-6.28602 31.1779,-7.59205 40.2608,-12.25446 70.8471,-23.98779 12.1911,-5.42308 24.594,-10.39317 36.5733,-16.26923 19.9945,-9.80764 52.6342,-28.28234 71.3305,-40.63723 11.2775,-7.45237 22.1792,-15.4731 32.9202,-23.67979 10.2026,-7.79531 20.3038,-15.75544 29.883,-24.30515 9.3703,-8.36314 17.9362,-17.58593 26.9043,-26.37889 27.5052,-30.850682 19.7609,-19.982228 42.2191,-53.555663 5.5823,-8.345079 11.2032,-16.675443 16.3557,-25.292506 4.5036,-7.531891 8.3949,-15.413451 12.5923,-23.1201768 0,0 -0.2622,-0.1505281 -0.2622,-0.1505281 v 0 c -9.9794,18.3227439 -16.3081,31.3229899 -28.9457,48.4087679 -12.164,16.445479 -31.4559,36.78406 -45.1229,51.763446 -24.9977,23.70899 -29.6051,29.39096 -57.2706,50.31122 -43.4411,32.84944 -91.4552,59.22501 -141.8402,79.76716 -31.3382,11.50291 -39.9138,15.76406 -71.6681,23.29969 -32.05,7.60581 -66.8239,11.71429 -99.7523,11.87859 -11.2163,0.056 -22.4176,-0.82926 -33.6264,-1.2439 -27.8875,-3.85684 -34.5503,-4.1119 -62.027,-10.58742 -9.7471,-2.29713 -19.3657,-5.11294 -29.0022,-7.83701 -28.4659,-8.04681 -56.5115,-17.48772 -85.0972,-25.12017 -8.8753,-2.11045 -17.6895,-4.49685 -26.626,-6.33136 -28.11463,-5.77147 -57.01762,-8.99606 -85.72029,-9.33212 -10.4755,-0.12265 -20.97151,0.001 -31.41908,0.77549 -10.05945,0.74542 -20.01626,2.51836 -30.02439,3.77753 -26.34547,5.84089 -34.05369,6.89101 -60.13855,15.44123 -10.54726,3.45723 -21.02423,7.17137 -31.28167,11.41191 -10.07854,4.16659 -19.92545,8.89149 -29.67098,13.78661 -28.95109,14.54196 -30.91497,16.78815 -58.02352,34.15095 -23.17071,16.47289 -34.33227,23.68091 -56.09587,42.07316 -23.44574,19.81381 -45.58043,42.70438 -65.47917,66.07182 -5.89647,6.92433 -11.38383,14.18686 -17.07575,21.2803 -5.22988,6.96292 -10.6126,13.81361 -15.68963,20.88876 -4.45268,6.20506 -8.69131,12.56258 -12.89177,18.94108 -10.2727,15.59937 -19.89761,31.67341 -27.78934,48.63003 -1.88956,4.06001 -3.44999,8.26523 -5.17499,12.39785 -1.30844,3.70547 -2.75788,7.36413 -3.92532,11.11641 -3.02336,9.71739 -4.61286,19.85292 -4.65091,30.02366 z" />
    <path
       style="fill:#bfbfbf;fill-opacity:1"
       id="path21"
       d="m 506.26768,564.71236 c 9.92872,-13.53017 19.17787,-27.54295 28.77029,-41.31212 18.44249,-25.91359 39.80977,-49.68784 63.45682,-70.95784 6.22504,-5.59928 12.71637,-10.89524 19.07455,-16.34287 35.49834,-29.09234 74.19281,-54.24197 116.05525,-73.21008 9.27363,-4.20194 18.80924,-7.79994 28.21386,-11.69991 37.12694,-14.04068 76.0754,-23.20783 115.51688,-27.66308 25.50899,-2.88145 34.35589,-2.50171 60.36294,-3.13282 54.98309,-0.0618 109.78873,5.07021 164.73193,6.40123 11.8813,0.28783 23.7681,0.26517 35.6522,0.39776 49.3315,0.18794 98.6803,-3.10698 147.4874,-10.324 12.5959,-1.86254 25.1826,-3.83489 37.6801,-6.27182 13.0956,-2.55356 26.0474,-5.79613 39.0711,-8.6942 38.0225,-10.06733 40.0595,-9.82684 77.7188,-23.01954 12.8221,-4.49185 25.599,-9.14092 38.1689,-14.29683 12.9195,-5.29931 25.6401,-11.08445 38.2637,-17.05431 12.2501,-5.7932 24.4266,-11.76504 36.3382,-18.22571 11.9865,-6.50135 23.5464,-13.76031 35.3197,-20.64047 10.9501,-7.01972 22.1131,-13.71804 32.8504,-21.05916 10.4756,-7.16217 20.6672,-14.73843 30.7596,-22.43112 16.0922,-12.26585 36.244,-28.70898 51.0234,-42.8675 11.0702,-10.60518 27.1567,-28.644908 37.672,-40.202092 0,0 -0.2585,-0.156765 -0.2585,-0.156765 v 0 c -5.8431,6.421811 -11.3917,13.124423 -17.5292,19.265437 -12.4308,12.43799 -32.4621,29.43537 -45.9377,40.3652 -29.1489,23.64217 -59.5496,45.73865 -91.8018,64.99313 -11.9335,6.7657 -23.6888,13.85554 -35.8003,20.29709 -60.2146,32.02545 -124.4997,56.12111 -190.7206,72.3034 -13.0635,2.85997 -26.061,6.04065 -39.1906,8.57989 -60.9942,11.79615 -123.2123,16.41502 -185.2709,16.4122 -11.8973,-0.14773 -23.7972,-0.15599 -35.692,-0.44318 -54.8712,-1.3248 -109.61646,-6.24978 -164.52534,-6.21301 -26.09636,0.5833 -34.93743,0.15469 -60.50948,3.10371 -28.93166,3.33646 -59.37646,9.5545 -87.23141,18.00992 -9.55102,2.89923 -18.86491,6.52879 -28.29736,9.79318 -9.49037,3.85706 -19.11962,7.38864 -28.47111,11.57118 -8.98552,4.01885 -17.77507,8.47175 -26.50575,13.01773 -8.75238,4.55727 -17.44146,9.25101 -25.92892,14.28448 -22.64084,13.42709 -43.67646,29.29283 -64.22039,45.68608 -6.44601,5.40605 -13.04252,10.63756 -19.33802,16.21815 -23.85547,21.14649 -45.36158,44.95319 -64.10991,70.71906 -9.63328,13.7313 -18.92529,27.70448 -28.79256,41.26839 z" />
    <path
       style="fill:#bfbfbf;fill-opacity:1"
       id="path22"
       d="m 482.39889,552.93211 c 0.5185,-14.7568 5.67737,-28.84836 10.18451,-42.75306 10.79553,-31.42721 23.55192,-62.19413 38.16726,-92.03922 3.73928,-7.63573 7.71105,-15.1554 11.56658,-22.73311 18.12463,-33.10498 37.97046,-65.53115 62.19653,-94.58879 17.95022,-21.53014 26.25169,-28.94444 46.11272,-48.84013 8.21812,-7.45078 16.13577,-15.24705 24.65436,-22.35234 19.96339,-16.65127 39.84459,-30.68157 61.8053,-44.58665 17.90806,-11.33903 43.71654,-26.09452 63.04069,-35.25925 10.56273,-5.00951 21.50211,-9.1829 32.25316,-13.77435 42.95713,-15.14714 87.75973,-26.02728 133.43907,-27.82772 27.22384,-1.07303 41.07213,0.59535 68.11943,2.4404 45.2839,4.32914 89.7691,13.98169 134.4196,22.27512 32.3843,6.01507 33.1432,5.90571 65.2994,10.94651 22.68,2.28901 42.0541,4.83052 64.8716,4.83929 19.2278,0.007 46.9367,-2.15256 65.9087,-5.47467 27.6767,-4.84637 41.187,-9.87339 68.0089,-18.05824 26.5331,-10.74242 43.2902,-16.70522 68.5871,-30.226598 18.7274,-10.009941 46.9324,-28.141406 64.4294,-40.309849 10.4125,-7.241422 20.4782,-14.968999 30.7173,-22.453499 0,0 -0.2553,-0.161939 -0.2553,-0.161939 v 0 c -10.2388,7.483947 -20.1773,15.396996 -30.7163,22.451841 -10.5645,7.071946 -21.5005,13.588635 -32.5406,19.892482 -20.3911,11.643242 -47.0979,25.141442 -68.7548,34.481492 -11.5486,4.98059 -23.3979,9.23289 -35.0968,13.84933 -27.6037,8.39418 -39.597,12.97713 -68.0852,17.91002 -19.8964,3.44518 -45.797,5.38018 -65.9543,5.34664 -23.7616,-0.0395 -41.169,-2.43882 -64.8213,-4.8642 -34.2222,-5.3159 -30.6508,-4.51401 -65.2125,-10.9013 -44.5694,-8.23678 -88.9983,-17.65519 -134.1808,-22.02994 -26.2227,-1.73361 -41.8085,-3.44296 -68.20953,-2.42649 -45.65779,1.75788 -90.31453,13.01651 -133.23104,28.13047 -10.71682,4.62624 -21.62678,8.8285 -32.15046,13.8787 -19.12964,9.18011 -45.04744,24.2302 -62.80617,35.45638 -18.52898,11.7131 -45.60097,30.19793 -62.63921,44.12999 -8.59148,7.02519 -16.43397,14.91953 -24.65096,22.37929 -18.71863,18.64263 -29.46652,28.52432 -46.46595,48.69466 -24.41008,28.9633 -43.90134,61.65959 -62.40603,94.57277 -3.86392,7.57809 -7.81443,15.11264 -11.59176,22.73426 -14.74563,29.75263 -28.07937,60.28001 -39.02572,91.64119 -4.5601,13.99702 -9.37666,28.16147 -10.09632,42.99241 z" />
    <path
       style="fill:#bfbfbf;fill-opacity:1"
       id="path23"
       d="m 511.18646,571.74848 c 10.19524,-2.16139 19.19807,-7.49716 28.09715,-12.68267 22.0158,-13.47241 43.10155,-28.39978 64.19599,-43.25371 27.39492,-19.29445 54.42277,-39.14586 82.47495,-57.4902 6.32971,-4.13923 12.75639,-8.12826 19.13459,-12.19238 25.61445,-15.98723 52.35111,-30.14068 79.8229,-42.65769 6.2455,-2.84565 12.50069,-5.68065 18.86768,-8.24298 7.07702,-2.84807 14.29919,-5.32129 21.44878,-7.98194 27.31554,-9.10759 55.2411,-16.80172 83.73694,-21.20778 18.53367,-2.8657 22.78733,-2.71462 41.85233,-3.9789 38.62369,-1.58918 77.31003,1.27987 115.60853,6.20879 8.6151,1.10874 17.2047,2.4073 25.8071,3.61095 8.6802,1.34813 17.3644,2.67048 26.0406,4.04441 16.4129,2.59909 35.3323,5.83402 51.7536,8.12531 18.5729,2.59151 39.3031,5.00749 57.9737,6.70297 9.4755,0.86047 18.9724,1.46757 28.4586,2.20135 31.823,1.88047 63.7395,0.528 95.4712,-2.16731 10.5729,-0.89807 21.1435,-1.89046 31.6649,-3.26556 26.8025,-3.50294 37.9883,-6.21992 64.3851,-11.53017 31.2181,-6.90572 62.046,-15.94031 91.9642,-27.24941 10.5489,-3.98752 20.9468,-8.37085 31.3061,-12.82794 10.271,-4.41911 20.5288,-8.8887 30.5754,-13.79658 10.3002,-5.03173 20.2915,-10.67245 30.4373,-16.00868 28.514,-14.92965 54.8626,-33.4564 81.4468,-51.47695 0,0 -0.2548,-0.16284 -0.2548,-0.16284 v 0 c -8.4125,5.70241 -16.6449,11.68011 -25.2376,17.10722 -21.8484,13.79929 -35.6329,20.68287 -58.411,32.9178 -25.7022,12.49775 -36.0745,18.00838 -62.2717,28.93127 -40.0342,16.69229 -81.436,30.19278 -123.7863,39.61902 -26.8891,5.48458 -36.8354,7.98894 -64.1526,11.63518 -42.0106,5.60748 -84.6154,7.44268 -126.9401,5.46714 -26.5735,-2.01458 -30.7727,-2.07514 -57.4589,-5.15095 -35.6607,-4.11019 -71.0084,-10.32546 -106.4805,-15.7465 -19.9063,-2.87581 -30.2313,-4.58379 -49.9717,-6.62395 -30.5276,-3.15502 -61.31447,-4.70177 -91.99275,-3.47758 -18.73849,1.20159 -23.7939,1.07753 -42.01661,3.93689 -28.45355,4.4647 -56.28377,12.41763 -83.59029,21.41139 -7.21545,2.629 -14.51833,5.02941 -21.64634,7.88699 -6.35499,2.54769 -12.56251,5.45179 -18.77962,8.31957 -27.4107,12.6438 -54.18633,26.76317 -79.80291,42.74351 -6.39425,4.05909 -12.8466,8.02808 -19.18277,12.17726 -28.03024,18.35539 -54.90648,38.39679 -82.3731,57.56625 -21.18659,14.81848 -42.43082,29.60404 -64.59129,42.9468 -8.85429,5.10993 -17.81378,10.35596 -27.89193,12.63422 z" />
    <path
       style="fill:#bfbfbf;fill-opacity:1"
       id="path24"
       d="m 470.79875,554.93015 c -0.90053,-1.62185 -2.53437,-4.4184 -3.10565,-6.11537 -2.82873,-8.40273 -2.63759,-17.47826 -2.44188,-26.20062 0.26539,-2.80165 0.39745,-5.61913 0.79615,-8.40493 1.24334,-8.68737 3.06079,-15.93591 5.4974,-24.48846 2.87953,-10.10717 6.90218,-22.18606 10.5793,-31.97694 2.39886,-6.38733 5.02841,-12.68562 7.54262,-19.02843 10.34721,-23.59796 21.2688,-47.08176 34.13414,-69.43831 10.2582,-17.82601 23.64334,-38.56618 35.69241,-55.14607 7.12827,-9.80872 14.79305,-19.2161 22.18957,-28.82414 30.28146,-37.32132 63.93481,-71.8804 100.93318,-102.58701 25.22899,-20.93869 34.36515,-26.72305 61.00922,-45.73049 44.09204,-29.22024 90.5542,-55.265789 139.96807,-74.419687 30.7642,-11.924875 40.71657,-13.790137 72.07237,-22.336747 28.15357,-4.974965 40.4318,-8.120066 68.74145,-9.404219 21.1824,-0.960849 43.2417,0.300924 64.2805,2.859901 26.4905,3.222057 31.6375,5.270622 57.5835,11.549889 37.7016,10.6191 73.9836,25.447337 110.5236,39.386535 7.8385,2.990186 15.5781,6.269346 23.5593,8.854507 9.0212,2.922029 18.2664,5.10095 27.3996,7.651421 20.503,4.0021 36.3201,7.84822 57.2713,8.91519 17.7938,0.90617 45.4373,-0.61281 62.936,-3.45462 25.8644,-4.20042 42.736,-10.178055 67.7958,-17.708274 46.3466,-18.761066 23.3913,-8.878131 68.8661,-29.648431 0,0 -0.252,-0.167082 -0.252,-0.167082 v 0 c -45.7768,20.906756 -22.3485,11.331176 -70.3161,28.650141 -29.3682,8.030378 -39.7836,11.886254 -69.9328,16.139276 -19.9365,2.81237 -43.6068,3.90673 -63.7376,2.73413 -22.0436,-1.28402 -35.6584,-4.74664 -57.2542,-9.013764 -8.9866,-2.457492 -18.0837,-4.542005 -26.9599,-7.372475 -7.8912,-2.516345 -15.5437,-5.72792 -23.293,-8.652242 -36.4087,-13.739513 -72.5471,-28.392525 -110.0613,-38.95164 -9.5511,-2.289216 -19.0178,-4.964869 -28.6533,-6.867648 -29.966,-5.917551 -62.3805,-8.631963 -92.8834,-7.131284 -27.43064,1.349532 -41.26411,4.763516 -68.51075,9.642034 -30.56974,8.440336 -41.99967,10.788904 -71.99297,22.448543 -12.11202,4.708446 -23.98735,10.020232 -35.78224,15.474673 -12.25998,5.669511 -24.43217,11.549978 -36.36072,17.887171 -26.49835,14.077582 -42.69846,24.956192 -68.09784,40.969532 -24.16999,17.22749 -38.33712,26.68289 -61.27194,45.61084 -37.11198,30.62824 -70.64016,65.35158 -100.99627,102.63733 -7.4587,9.58053 -15.19618,18.95039 -22.3761,28.74158 -9.82446,13.39755 -27.64067,40.34787 -36.19094,54.91281 -4.49668,7.65986 -8.50772,15.59609 -12.59953,23.47967 -10.21035,19.672 -12.91439,25.90724 -22.19616,45.64618 -2.61299,6.2974 -5.36996,12.53697 -7.83896,18.89221 -3.348,8.61779 -8.1602,22.90606 -10.84369,31.88685 -2.65173,8.8745 -4.46839,15.48242 -5.78651,24.45073 -0.41166,2.80088 -0.53172,5.63691 -0.79758,8.45537 -0.24842,11.20005 -0.32145,22.85442 5.66257,32.75808 z" />
    <ellipse
       style="fill:#bfbfbf;fill-opacity:1"
       id="path25"
       cx="513.70453"
       cy="587.72144"
       rx="26.977547"
       ry="20.23316"
       transform="rotate(-21.859579)" />
    <ellipse
       style="fill:#bfbfbf;fill-opacity:1"
       id="path26"
       cx="529.21661"
       cy="510.83542"
       rx="3.3721933"
       ry="71.490501"
       transform="rotate(-21.859579)" />
    <ellipse
       style="fill:#bfbfbf;fill-opacity:1;stroke-width:0.872712"
       id="path27"
       cx="861.01331"
       cy="438.75226"
       rx="38.352329"
       ry="26.177818"
       transform="matrix(0.98497494,-0.17269735,0.10610107,0.99435535,0,0)" />
    <ellipse
       style="fill:#bfbfbf;fill-opacity:1;stroke-width:0.872712"
       id="path28"
       cx="893.80731"
       cy="357.10245"
       rx="3.334985"
       ry="81.649857"
       transform="matrix(0.98497494,-0.17269735,0.10610107,0.99435535,0,0)" />
    <ellipse
       style="fill:#bfbfbf;fill-opacity:1;stroke-width:0.872712"
       id="path29"
       cx="971.62366"
       cy="385.77341"
       rx="37.796497"
       ry="25.554537"
       transform="matrix(0.98497494,-0.17269735,0.10610107,0.99435535,0,0)" />
    <ellipse
       style="fill:#bfbfbf;fill-opacity:1;stroke-width:0.872712"
       id="path30"
       cx="1003.8618"
       cy="318.45901"
       rx="4.4466467"
       ry="70.430801"
       transform="matrix(0.98497494,-0.17269735,0.10610107,0.99435535,0,0)" />
    <ellipse
       style="fill:#bfbfbf;fill-opacity:1;stroke-width:0.874266"
       id="path31"
       cx="897.8678"
       cy="469.20233"
       rx="61.833439"
       ry="6.7416801"
       transform="matrix(0.91998605,-0.39195111,0.29068378,0.95681918,0,0)" />
    <ellipse
       style="fill:#bfbfbf;fill-opacity:1;stroke-width:0.872712"
       id="path27-5"
       cx="1366.275"
       cy="533.04193"
       rx="38.352329"
       ry="26.177818"
       transform="matrix(0.98497494,-0.17269735,0.10610107,0.99435535,0,0)" />
    <ellipse
       style="fill:#bfbfbf;fill-opacity:1;stroke-width:0.872712"
       id="path28-3"
       cx="1399.069"
       cy="451.39209"
       rx="3.334985"
       ry="81.649857"
       transform="matrix(0.98497494,-0.17269735,0.10610107,0.99435535,0,0)" />
    <ellipse
       style="fill:#bfbfbf;fill-opacity:1;stroke-width:0.872712"
       id="path29-5"
       cx="1476.8854"
       cy="480.06305"
       rx="37.796497"
       ry="25.554537"
       transform="matrix(0.98497494,-0.17269735,0.10610107,0.99435535,0,0)" />
    <ellipse
       style="fill:#bfbfbf;fill-opacity:1;stroke-width:0.872712"
       id="path30-6"
       cx="1509.1235"
       cy="412.74866"
       rx="4.4466467"
       ry="70.430801"
       transform="matrix(0.98497494,-0.17269735,0.10610107,0.99435535,0,0)" />
    <ellipse
       style="fill:#bfbfbf;fill-opacity:1;stroke-width:0.874266"
       id="path31-2"
       cx="1384.5565"
       cy="675.36273"
       rx="61.833439"
       ry="6.7416801"
       transform="matrix(0.91998605,-0.39195111,0.29068378,0.95681918,0,0)" />
    <ellipse
       style="fill:#bfbfbf;fill-opacity:1"
       id="path32"
       cx="1288.5013"
       cy="625.37506"
       rx="47.885143"
       ry="22.256475"
       transform="rotate(-14.124663)" />
    <text
       xml:space="preserve"
       id="text32"
       style="white-space:pre;shape-inside:url(#rect32);display:inline;fill:#ffffff;fill-opacity:1" />
    <text
       xml:space="preserve"
       id="text33"
       style="white-space:pre;shape-inside:url(#rect33);display:inline;fill:#ffffff;fill-opacity:1"><tspan
         x="16.1875"
         y="193.5808"
         id="tspan2"><tspan
           style="font-size:192px;-inkscape-font-specification:'sans-serif, Normal'"
           id="tspan1">SNAP</tspan></tspan></text>
  </g>
</svg>
