<?xml version="1.0" encoding="UTF-8" standalone="no"?>
<svg
   viewBox="0 0 448 512"
   version="1.1"
   id="svg1"
   sodipodi:docname="trash-can-focus.svg"
   inkscape:export-filename="trash-can-focus.svg"
   inkscape:export-xdpi="96"
   inkscape:export-ydpi="96"
   inkscape:version="1.3.2 (091e20ef0f, 2023-11-25)"
   xmlns:inkscape="http://www.inkscape.org/namespaces/inkscape"
   xmlns:sodipodi="http://sodipodi.sourceforge.net/DTD/sodipodi-0.dtd"
   xmlns="http://www.w3.org/2000/svg"
   xmlns:svg="http://www.w3.org/2000/svg">
  <defs
     id="defs1" />
  <sodipodi:namedview
     id="namedview1"
     pagecolor="#505050"
     bordercolor="#eeeeee"
     borderopacity="1"
     inkscape:showpageshadow="0"
     inkscape:pageopacity="0"
     inkscape:pagecheckerboard="0"
     inkscape:deskcolor="#505050"
     inkscape:zoom="1.65625"
     inkscape:cx="201.66038"
     inkscape:cy="244.5283"
     inkscape:window-width="1920"
     inkscape:window-height="1052"
     inkscape:window-x="0"
     inkscape:window-y="0"
     inkscape:window-maximized="1"
     inkscape:current-layer="svg1" />
  <rect
     style="fill:#d0d0d0;fill-opacity:1"
     id="rect1"
     width="344.15094"
     height="362.86792"
     x="54.339622"
     y="111.69811" />
  <!--!Font Awesome Free 6.6.0 by @fontawesome - https://fontawesome.com License - https://fontawesome.com/license/free Copyright 2024 Fonticons, Inc.-->
  <path
     fill="#deddda"
     d="M170.5 51.6L151.5 80l145 0-19-28.4c-1.5-2.2-4-3.6-6.7-3.6l-93.7 0c-2.7 0-5.2 1.3-6.7 3.6zm147-26.6L354.2 80 368 80l48 0 8 0c13.3 0 24 10.7 24 24s-10.7 24-24 24l-8 0 0 304c0 44.2-35.8 80-80 80l-224 0c-44.2 0-80-35.8-80-80l0-304-8 0c-13.3 0-24-10.7-24-24S10.7 80 24 80l8 0 48 0 13.8 0 36.7-55.1C140.9 9.4 158.4 0 177.1 0l93.7 0c18.7 0 36.2 9.4 46.6 24.9zM80 128l0 304c0 17.7 14.3 32 32 32l224 0c17.7 0 32-14.3 32-32l0-304L80 128zm80 64l0 208c0 8.8-7.2 16-16 16s-16-7.2-16-16l0-208c0-8.8 7.2-16 16-16s16 7.2 16 16zm80 0l0 208c0 8.8-7.2 16-16 16s-16-7.2-16-16l0-208c0-8.8 7.2-16 16-16s16 7.2 16 16zm80 0l0 208c0 8.8-7.2 16-16 16s-16-7.2-16-16l0-208c0-8.8 7.2-16 16-16s16 7.2 16 16z"
     id="path1"
     style="fill:#fefefe;fill-opacity:1" />
</svg>
